<svg version="1.1" id="Layer_1" xmlns="http://www.w3.org/2000/svg" xmlns:xlink="http://www.w3.org/1999/xlink" x="0px" y="0px"
	 width="100%" viewBox="0 0 1024 1024" enable-background="new 0 0 1024 1024" xml:space="preserve">
<path fill="#000000" opacity="1.000000" stroke="none" 
	d="
M642.026123,796.204956 
	C615.221497,807.628967 587.963806,816.438354 559.378052,819.951416 
	C494.779419,827.890259 433.691528,816.569397 376.892761,784.377136 
	C343.796234,765.618835 315.069153,741.481995 291.862640,711.232727 
	C262.532928,673.002014 242.662140,630.391052 233.686447,582.832520 
	C228.963715,557.808716 227.918747,532.684570 229.533981,507.318298 
	C231.580948,475.172180 238.442276,444.151093 250.711853,414.408112 
	C270.769653,365.785370 301.206512,324.813995 343.397339,293.276154 
	C383.787231,263.084534 429.019867,243.571304 479.080566,235.955368 
	C492.091583,233.975967 505.252716,233.982956 518.395813,233.492935 
	C556.643188,232.066971 593.117249,239.819580 628.376038,253.852768 
	C683.396484,275.751221 728.254089,310.861359 762.027710,359.538849 
	C788.568176,397.791321 804.091248,440.544464 811.040466,486.477814 
	C814.245300,507.661133 814.381409,529.068787 813.001282,550.284058 
	C810.208557,593.212769 797.930542,633.588562 777.193176,671.389404 
	C755.575317,710.795349 726.136963,743.141846 689.526489,768.977600 
	C674.684631,779.451416 658.866760,788.387939 642.026123,796.204956 
M710.146851,348.358246 
	C695.682434,333.802094 680.146667,320.599701 663.082581,309.088440 
	C623.706726,282.525818 580.123962,268.490448 533.026794,265.595001 
	C501.834534,263.677399 471.168091,268.275757 441.490784,278.013672 
	C399.859680,291.673889 364.367859,315.195435 333.900238,346.572021 
	C308.187653,373.051697 289.797760,403.999878 276.958801,438.419159 
	C269.885834,457.380615 265.345306,476.976898 263.599518,497.102295 
	C263.067261,503.238037 261.533295,509.519501 262.723846,515.951660 
	C269.480316,515.951660 275.785950,515.914978 282.090942,515.960632 
	C290.760986,516.023438 298.621765,523.883850 298.804413,532.606995 
	C298.983093,541.143677 291.469788,548.309998 282.225647,548.395569 
	C279.226501,548.423279 276.226837,548.390747 273.227386,548.387878 
	C262.078003,548.377319 262.127960,548.372498 263.243011,559.284180 
	C266.836517,594.449341 278.370117,627.088867 295.500641,657.732178 
	C312.267426,687.724915 334.552185,713.112061 361.677185,734.327332 
	C400.409058,764.620911 444.134216,782.925964 492.887482,788.428406 
	C519.411255,791.421997 545.969299,790.425110 572.282532,784.670349 
	C630.358459,771.968811 678.915527,743.335876 717.977234,698.602661 
	C743.148254,669.777039 760.171631,636.563354 770.930115,599.939636 
	C775.449097,584.556274 778.479431,568.970886 779.711060,553.001465 
	C779.981445,549.495605 778.671509,548.210693 775.177002,548.345642 
	C769.685486,548.557678 764.180359,548.385559 758.682556,548.474915 
	C752.078613,548.582214 747.065796,545.216919 744.059021,538.514526 
	C741.481506,532.768921 742.664612,526.489014 747.104065,521.915466 
	C751.065125,517.834656 756.045410,516.272278 761.529602,516.052979 
	C765.190369,515.906494 768.860474,515.992065 772.526428,515.980774 
	C780.146545,515.957275 780.263000,515.896606 779.895996,508.059448 
	C779.013062,489.206482 775.669312,470.753906 770.200989,452.723572 
	C758.320190,413.550293 739.216370,378.470856 710.146851,348.358246 
z"/>
<path fill="#000000" opacity="1.000000" stroke="none" 
	d="
M464.890137,431.450012 
	C456.565002,427.013092 453.094788,420.099121 455.056091,412.474518 
	C457.060852,404.681030 463.830078,399.718475 472.579468,399.684296 
	C480.577820,399.653046 488.581512,399.499603 496.572723,399.738892 
	C500.506592,399.856689 501.766907,398.516663 501.747314,394.586273 
	C501.633362,371.758087 501.740326,348.928772 501.772614,326.099854 
	C501.780121,320.786957 502.615845,315.631012 506.914551,312.048492 
	C511.997284,307.812500 517.639221,305.407745 524.409424,308.427094 
	C531.411926,311.550049 534.169067,317.384766 534.231506,324.443115 
	C534.433411,347.270447 534.324890,370.100525 534.340454,392.929535 
	C534.344971,399.655701 534.351746,399.678650 541.251953,399.680695 
	C592.742249,399.696106 644.232544,399.697845 695.722839,399.722046 
	C698.203857,399.723206 700.687012,399.517944 703.124207,400.452515 
	C711.554749,403.685272 716.526917,411.233093 715.203552,418.973694 
	C713.871155,426.767059 706.255310,432.931458 697.539795,433.078796 
	C690.376343,433.199982 683.209595,433.113220 676.044373,433.137146 
	C669.099243,433.160370 669.089478,433.170746 669.089905,440.024414 
	C669.092834,492.680969 669.097168,545.337524 669.107483,597.994080 
	C669.109985,610.824951 669.147583,623.655884 669.148438,636.486755 
	C669.149292,649.131653 663.037842,656.973145 653.064270,657.167175 
	C643.652527,657.350159 636.662842,648.591309 636.660278,636.596252 
	C636.646545,572.775085 636.636475,508.953888 636.619690,445.132721 
	C636.618958,442.467194 636.633301,439.798553 636.513245,437.137085 
	C636.400024,434.627563 635.202271,433.077454 632.459290,433.126953 
	C630.960632,433.153992 629.460632,433.092377 627.961243,433.092834 
	C577.137634,433.107910 526.313965,433.130768 475.490356,433.131775 
	C472.014465,433.131836 468.451538,433.539001 464.890137,431.450012 
z"/>
<path fill="#000000" opacity="1.000000" stroke="none" 
	d="
M359.079895,529.000000 
	C359.048798,500.006683 358.993439,471.513336 359.011475,443.020050 
	C359.014099,438.865021 359.285736,434.704468 359.574982,430.556427 
	C360.231598,421.140411 367.064178,414.077026 375.597321,413.881104 
	C383.960297,413.689056 391.128174,420.694092 392.148193,430.166168 
	C392.361359,432.145538 392.266022,434.161102 392.265961,436.160004 
	C392.263580,503.311188 392.254974,570.462341 392.248962,637.613525 
	C392.248352,644.656372 392.253235,644.650269 399.412933,644.644348 
	C453.065887,644.600220 506.718811,644.558105 560.371765,644.516846 
	C569.328430,644.509949 576.851929,651.859131 577.201416,660.948181 
	C577.508240,668.927002 569.635681,676.730652 560.552917,677.071533 
	C553.563782,677.333801 546.551453,677.349792 539.562439,677.103699 
	C535.330872,676.954712 534.185486,678.621704 534.227295,682.655762 
	C534.403687,699.650024 534.292786,716.647095 534.310852,733.643188 
	C534.316895,739.298523 532.514709,744.243896 527.909851,747.613647 
	C523.127869,751.112976 517.966248,752.677979 512.056824,749.656616 
	C505.434875,746.271057 501.962616,740.915344 501.868347,733.738037 
	C501.647430,716.911499 501.682678,700.078613 501.889801,683.251587 
	C501.944489,678.807007 500.766083,677.170410 496.021210,677.186829 
	C457.197662,677.321350 418.373260,677.209412 379.549103,677.160278 
	C366.873901,677.144226 359.680908,670.032043 359.624878,657.451660 
	C359.434967,614.801086 359.259979,572.150574 359.079895,529.000000 
z"/>
<path fill="#000000" opacity="1.000000" stroke="none" 
	d="
M534.295654,484.293762 
	C534.297302,531.984314 534.297302,579.209778 534.297302,626.337891 
	C531.223755,626.976868 530.201721,625.165894 529.023132,623.936646 
	C520.841675,615.403625 512.771179,606.764221 504.574524,598.246033 
	C502.448853,596.036926 501.730286,593.598450 501.732117,590.587524 
	C501.759796,544.780029 501.705231,498.972473 501.701843,453.164948 
	C501.701721,451.574158 501.242645,449.835297 502.525452,448.419861 
	C504.404053,447.905487 505.259064,449.340790 506.244324,450.371033 
	C514.645508,459.155853 522.981567,468.003326 531.427856,476.744354 
	C533.401489,478.786957 534.665527,480.928345 534.295654,484.293762 
z"/>
<path fill="#000000" opacity="1.000000" stroke="none" 
	d="
M461.708862,521.200195 
	C467.432251,526.461243 470.042999,532.766174 467.996246,539.867432 
	C466.125183,546.359131 461.557220,551.158569 454.737701,553.012024 
	C446.779388,555.174927 438.009064,551.233704 433.826508,543.895020 
	C429.827606,536.878601 431.224487,527.795227 437.211121,521.885559 
	C442.664276,516.502502 451.871338,515.403259 458.920166,519.320251 
	C459.790070,519.803650 460.584381,520.423035 461.708862,521.200195 
z"/>
<path fill="#000000" opacity="1.000000" stroke="none" 
	d="
M599.568359,541.313782 
	C595.407349,550.924438 586.667725,555.434692 577.693359,552.917969 
	C569.215149,550.540283 562.645508,541.224182 563.893127,533.348511 
	C565.456055,523.482605 573.511047,516.604248 583.284973,516.789246 
	C594.989136,517.010864 603.268433,529.206177 599.568359,541.313782 
z"/>
</svg>