<svg width="480" height="480" xmlns="http://www.w3.org/2000/svg" xmlns:svg="http://www.w3.org/2000/svg" xmlns:xlink="http://www.w3.org/1999/xlink">
 <!-- Created with SVG-edit - https://github.com/SVG-Edit/svgedit-->
 <defs>
  <symbol id="svg_2" viewBox="0 0 1024 1024" width="100%" xmlns="http://www.w3.org/2000/svg" xmlns:xlink="http://www.w3.org/1999/xlink">
   <path d="m642.03,796.2c-26.81,11.43 -54.07,20.24 -82.65,23.75c-64.6,7.94 -125.69,-3.38 -182.49,-35.57c-33.09,-18.76 -61.82,-42.9 -85.03,-73.15c-29.33,-38.23 -49.2,-80.84 -58.17,-128.4c-4.73,-25.02 -5.77,-50.15 -4.16,-75.51c2.05,-32.15 8.91,-63.17 21.18,-92.91c20.06,-48.62 50.5,-89.6 92.69,-121.13c40.39,-30.2 85.62,-49.71 135.68,-57.32c13.01,-1.98 26.17,-1.98 39.32,-2.47c38.24,-1.42 74.72,6.33 109.98,20.36c55.02,21.9 99.87,57.01 133.65,105.69c26.54,38.25 42.06,81 49.01,126.94c3.21,21.18 3.34,42.59 1.96,63.8c-2.79,42.93 -15.07,83.31 -35.81,121.11c-21.61,39.41 -51.05,71.75 -87.66,97.59c-14.85,10.47 -30.66,19.41 -47.5,27.22m68.12,-447.84c-14.47,-14.56 -30,-27.76 -47.07,-39.27c-39.37,-26.56 -82.96,-40.6 -130.05,-43.49c-31.2,-1.92 -61.86,2.68 -91.54,12.41c-41.63,13.66 -77.12,37.19 -107.59,68.56c-25.71,26.48 -44.1,57.43 -56.94,91.85c-7.07,18.96 -11.61,38.56 -13.36,58.68c-0.53,6.14 -2.07,12.42 -0.88,18.85c6.76,0 13.07,-0.04 19.37,0.01c8.67,0.06 16.53,7.92 16.71,16.65c0.18,8.53 -7.33,15.7 -16.57,15.79c-3,0.02 -6,-0.01 -9,-0.01c-11.15,-0.01 -11.1,-0.02 -9.99,10.89c3.6,35.17 15.13,67.81 32.26,98.45c16.77,29.99 39.05,55.38 66.18,76.6c38.73,30.29 82.45,48.6 131.21,54.1c26.52,2.99 53.08,2 79.39,-3.76c58.08,-12.7 106.64,-41.33 145.7,-86.07c25.17,-28.82 42.19,-62.04 52.95,-98.66c4.52,-15.38 7.55,-30.97 8.78,-46.94c0.27,-3.5 -1.04,-4.79 -4.53,-4.65c-5.49,0.21 -11,0.04 -16.5,0.12c-6.6,0.11 -11.61,-3.25 -14.62,-9.96c-2.58,-5.74 -1.4,-12.02 3.04,-16.59c3.97,-4.09 8.95,-5.65 14.43,-5.87c3.66,-0.14 7.33,-0.06 11,-0.07c7.62,-0.02 7.73,-0.08 7.37,-7.92c-0.89,-18.85 -4.23,-37.31 -9.7,-55.34c-11.88,-39.17 -30.98,-74.25 -60.05,-104.36z" fill="#000000" id="svg_1" style="--darkreader-inline-fill: #000000;"/>
   <path d="m464.89,431.45c-8.32,-4.44 -11.8,-11.35 -9.83,-18.98c2,-7.79 8.77,-12.75 17.52,-12.79c8,-0.03 16,-0.18 23.99,0.06c3.94,0.12 5.2,-1.22 5.18,-5.15c-0.12,-22.83 -0.01,-45.66 0.02,-68.49c0.01,-5.31 0.85,-10.47 5.14,-14.05c5.09,-4.24 10.73,-6.64 17.5,-3.62c7,3.12 9.76,8.95 9.82,16.01c0.2,22.83 0.09,45.66 0.11,68.49c0,6.73 0.01,6.75 6.91,6.75c51.49,0.02 102.98,0.02 154.47,0.04c2.48,0 4.97,-0.2 7.4,0.73c8.43,3.24 13.41,10.78 12.08,18.52c-1.33,7.8 -8.94,13.96 -17.66,14.11c-7.16,0.12 -14.33,0.03 -21.5,0.06c-6.94,0.02 -6.95,0.03 -6.95,6.88c0,52.66 0.01,105.32 0.02,157.97c0,12.83 0.04,25.67 0.04,38.5c0,12.64 -6.11,20.48 -16.09,20.68c-9.41,0.18 -16.4,-8.58 -16.4,-20.57c-0.01,-63.82 -0.02,-127.65 -0.04,-191.47c0,-2.66 0.01,-5.33 -0.11,-7.99c-0.11,-2.51 -1.31,-4.06 -4.05,-4.01c-1.5,0.02 -3,-0.04 -4.5,-0.04c-50.82,0.02 -101.65,0.04 -152.47,0.04c-3.48,0 -7.04,0.41 -10.6,-1.68z" fill="#000000" id="svg_4" style="--darkreader-inline-fill: #000000;"/>
   <path d="m359.08,529c-0.03,-28.99 -0.09,-57.49 -0.07,-85.98c0,-4.15 0.28,-8.32 0.56,-12.46c0.66,-9.42 7.49,-16.48 16.03,-16.68c8.36,-0.19 15.53,6.81 16.55,16.29c0.21,1.98 0.12,3.99 0.12,5.99c-0.01,67.15 -0.02,134.3 -0.02,201.45c0,7.05 0,7.04 7.16,7.03c53.66,-0.04 107.31,-0.08 160.96,-0.12c8.96,-0.01 16.48,7.34 16.83,16.43c0.31,7.98 -7.56,15.78 -16.65,16.12c-6.99,0.26 -14,0.28 -20.99,0.03c-4.23,-0.15 -5.37,1.52 -5.33,5.56c0.17,16.99 0.06,33.99 0.08,50.98c0.01,5.66 -1.8,10.6 -6.4,13.97c-4.78,3.5 -9.94,5.07 -15.85,2.05c-6.63,-3.39 -10.1,-8.74 -10.19,-15.92c-0.22,-16.83 -0.19,-33.66 0.02,-50.49c0.05,-4.44 -1.12,-6.08 -5.87,-6.06c-38.82,0.13 -77.65,0.02 -116.47,-0.03c-12.68,-0.02 -19.87,-7.13 -19.93,-19.71c-0.19,-42.65 -0.36,-85.3 -0.54,-128.45z" fill="#000000" id="svg_5" style="--darkreader-inline-fill: #000000;"/>
   <path d="m534.3,484.29c0,47.69 0,94.92 0,142.05c-3.08,0.64 -4.1,-1.17 -5.28,-2.4c-8.18,-8.54 -16.25,-17.18 -24.45,-25.69c-2.12,-2.21 -2.84,-4.65 -2.84,-7.66c0.03,-45.81 -0.02,-91.62 -0.03,-137.43c0,-1.59 -0.46,-3.32 0.83,-4.74c1.87,-0.51 2.73,0.92 3.71,1.95c8.41,8.79 16.74,17.63 25.19,26.37c1.97,2.05 3.24,4.19 2.87,7.55z" fill="#000000" id="svg_6" style="--darkreader-inline-fill: #000000;"/>
   <path d="m461.71,521.2c5.72,5.26 8.33,11.57 6.29,18.67c-1.87,6.49 -6.44,11.29 -13.26,13.14c-7.96,2.16 -16.73,-1.78 -20.91,-9.11c-4,-7.02 -2.61,-16.1 3.38,-22.01c5.45,-5.39 14.66,-6.49 21.71,-2.57c0.87,0.48 1.66,1.1 2.79,1.88z" fill="#000000" id="svg_7" style="--darkreader-inline-fill: #000000;"/>
   <path d="m599.57,541.31c-4.16,9.61 -12.9,14.12 -21.88,11.61c-8.47,-2.38 -15.04,-11.7 -13.8,-19.57c1.57,-9.87 9.62,-16.75 19.39,-16.56c11.71,0.22 19.99,12.42 16.29,24.52z" fill="#000000" id="svg_8" style="--darkreader-inline-fill: #000000;"/>
  </symbol>
 </defs>
 <g class="layer">
  <title>Layer 1</title>
  <use id="svg_3" transform="matrix(1.58802 0 0 1.58802 -261.426 -149.905)" x="73.67" xlink:href="#svg_2" y="-1.26"/>
 </g>
</svg>
